<svg data-v-0dd9719b="" version="1.0" xmlns="http://www.w3.org/2000/svg" xmlns:xlink="http://www.w3.org/1999/xlink"
    width="100%" height="100%" viewBox="0 0 340.000000 250.000000" preserveAspectRatio="xMidYMid meet"
    color-interpolation-filters="sRGB" style="margin: auto;">
    <rect data-v-0dd9719b="" x="0" y="0" width="100%" height="100%" fill="#ffffff" fill-opacity="1"
        class="background custom-cursor-on-hover"></rect>
    <!---->
    <g data-v-0dd9719b="" fill="#333333" class="icon-text-wrapper icon-svg-group iconsvg"
        transform="translate(74.71470642089844,53.24908447265625)">
        <g fill="#ff5857" class="iconsvg-imagesvg icon_container" transform="translate(52.45843505859375,0)">
            <rect fill="#333333" fill-opacity="0" stroke-width="2" x="0" y="0" width="85.65371573834014"
                height="85.65371573834014" class="image-rect"></rect> <svg viewBox="0 0 60 60.51376183800466" x="0"
                y="0" width="85.65371573834014" height="85.65371573834014" class="image-svg-svg bn"
                style="overflow: visible;">
                <g hollow-target="iconBnFill" mask="url(#70954441-7d84-4073-9c38-30c3385ad6ab)">
                    <g><svg xmlns="http://www.w3.org/2000/svg" xlink="http://www.w3.org/1999/xlink"
                            viewBox="0.00406 -0.00027 45.33224 45.72027" style="overflow: visible;" width="60"
                            height="60.51376183800466" x="0" y="0" filtersec="colorsf648519436"
                            filter="url(#XkNf7ZoCKEPrCHdHsmDwt)">
                            <g transform="scale(1, 1) skewX(0)">
                                <defs>
                                    <linearGradient id="aedf14778-505f-4729-8d26-6cf422bbd99e" x1="39.29" y1="13.69"
                                        x2="23.57" y2="10.5" gradientTransform="matrix(1 0 0 -1 0 48)"
                                        gradientUnits="userSpaceOnUse">
                                        <stop offset="0" stop-color="#7117ea" stop-opacity="0"></stop>
                                        <stop offset="1" stop-color="#ea6060"></stop>
                                    </linearGradient>
                                    <linearGradient id="bd2466f11-6ec8-4466-9597-51998cca0597" x1="25.89" y1="43.81"
                                        x2="20.61" y2="7.26" gradientTransform="matrix(1 0 0 -1 0 48)"
                                        gradientUnits="userSpaceOnUse">
                                        <stop offset="0" stop-color="#7117ea"></stop>
                                        <stop offset="1" stop-color="#ea6060"></stop>
                                    </linearGradient>
                                    <linearGradient id="ca9b77283-2ac2-49b4-84a3-68e30036f892" x1="39.77" y1="41.92"
                                        x2="-.84" y2="-6.24" gradientTransform="matrix(1 0 0 -1 0 48)"
                                        gradientUnits="userSpaceOnUse">
                                        <stop offset="0" stop-color="#7117ea" stop-opacity=".75"></stop>
                                        <stop offset="1" stop-color="#ea6060" stop-opacity="0"></stop>
                                    </linearGradient>
                                    <linearGradient id="d695b6bbf-36b5-4e31-ad76-c2d8603ccba5" x1="14855.71"
                                        y1="-47296.35" x2="14554.11" y2="-46333.85"
                                        href="#aedf14778-505f-4729-8d26-6cf422bbd99e"></linearGradient>
                                    <filter id="XkNf7ZoCKEPrCHdHsmDwt">
                                        <feColorMatrix type="matrix"
                                            values="0 0 0 0 0.99609375  0 0 0 0 0.34375  0 0 0 0 0.33984375  0 0 0 1 0">
                                        </feColorMatrix>
                                    </filter>
                                </defs>
                                <path
                                    d="M31.72 44.35a8.26 8.26 0 0 0 8-8.5 8.26 8.26 0 0 0-8-8.5 8.26 8.26 0 0 0-8 8.5 8.26 8.26 0 0 0 8 8.5z"
                                    opacity=".5" fill="url(#aedf14778-505f-4729-8d26-6cf422bbd99e)"
                                    style="isolation:isolate"></path>
                                <path
                                    d="M7.25 38.52l26.8 3.87a4.93 4.93 0 0 0 5.58-4.18l3.87-26.8a4.93 4.93 0 0 0-4.17-5.58L12.53 2A4.92 4.92 0 0 0 7 6.14l-3.92 26.8a4.93 4.93 0 0 0 4.17 5.58z"
                                    opacity=".25" fill="url(#bd2466f11-6ec8-4466-9597-51998cca0597)"
                                    style="isolation:isolate"></path>
                                <g opacity=".5">
                                    <path
                                        d="M11.22 33.57c6.06 4.62 15.19 8.87 20.7 9.67 8 1.15 14.32 0 13.31-13.58C44 13.82 39.67-.07 32.34 0s-53.08 9.2-21.12 33.57z"
                                        opacity=".5" fill="url(#ca9b77283-2ac2-49b4-84a3-68e30036f892)"
                                        style="isolation:isolate"></path>
                                    <path d="M30.2 45.72a14.55 14.55 0 1 0-14.54-14.55A14.54 14.54 0 0 0 30.2 45.72z"
                                        opacity=".25" fill="url(#d695b6bbf-36b5-4e31-ad76-c2d8603ccba5)"
                                        style="isolation:isolate" class="custom-cursor-on-hover"></path>
                                </g>
                            </g>
                        </svg></g>
                    <g filter="url(#colors115617268)"><svg xmlns="http://www.w3.org/2000/svg"
                            xmlns:xlink="http://www.w3.org/1999/xlink"
                            viewBox="0 0 43.321333007812505 56.221714285714306" width="42" height="42.35963" x="9"
                            y="9.07706591900233" class="image-svg-letter">
                            <path transform="translate(-0.036000000000000004 53.917714285714304)"
                                d="M14.69-33.70L14.69-33.70Q15.41-37.73 15.84-40.97Q16.27-44.21 16.45-46.58Q16.63-48.96 16.70-50.44Q16.78-51.91 16.78-52.38Q16.78-52.85 16.78-52.34L16.78-52.34Q17.06-53.64 18.04-53.86Q19.01-54.07 20.23-53.53Q21.46-52.99 22.54-52.06Q23.62-51.12 24.12-50.18L24.12-50.18Q24.05-49.82 23.98-48.53L23.98-48.53Q23.90-46.30 23.51-41.54Q23.11-36.79 22.10-29.88L22.10-29.88Q24.98-27.65 26.86-26.28L26.86-26.28Q28.80-24.91 31.46-22.82L31.46-22.82Q32.47-28.37 33.77-35.93L33.77-35.93Q34.78-41.69 35.60-46.30Q36.43-50.90 36.79-52.34L36.79-52.34Q37.22-53.57 38.23-53.57Q39.24-53.57 40.36-52.85Q41.47-52.13 42.34-51.30Q43.20-50.47 43.27-50.04L43.27-50.04Q43.56-47.88 42.88-43.09Q42.19-38.30 41.11-31.90L41.11-31.90Q40.18-26.50 39.28-20.63Q38.38-14.76 37.80-9.00L37.80-9.00Q37.73-8.14 37.66-7.42Q37.58-6.70 37.51-6.05Q37.44-5.40 37.37-4.82Q37.30-4.25 37.22-3.74Q37.15-3.24 37.08-2.84Q37.01-2.45 36.94-2.09Q36.86-1.73 36.83-1.44Q36.79-1.15 36.72-0.90Q36.65-0.65 36.61-0.47Q36.58-0.29 36.50-0.14Q36.43 0 36.40 0.11Q36.36 0.22 36.32 0.29Q36.29 0.36 36.25 0.40Q36.22 0.43 36.22 0.43Q36.22 0.43 36.18 0.47Q36.14 0.50 36.11 0.47Q36.07 0.43 36.07 0.43Q36.07 0.43 36.07 0.43Q36.07 0.43 36.07 0.43L36.07 0.43Q36.00 0.65 35.17 1.12Q34.34 1.58 33.23 1.94Q32.11 2.30 31.14 2.30Q30.17 2.30 29.74 1.58L29.74 1.58Q28.80-0.22 28.73-2.84Q28.66-5.47 29.12-9.07Q29.59-12.67 30.31-17.35L30.31-17.35Q30.67-19.22 30.96-21.24L30.96-21.24Q29.38-22.39 28.30-23.18L28.30-23.18Q26.78-24.41 25.38-25.38Q23.98-26.35 21.67-27.94L21.67-27.94Q21.46-26.71 21.24-25.42L21.24-25.42Q20.66-21.46 19.98-17.46Q19.30-13.46 18.43-9.86Q17.57-6.26 16.52-3.67Q15.48-1.08 14.11 0L14.11 0Q13.54 0.14 12.38 0.22Q11.23 0.29 9.90 0.14Q8.57 0 7.49-0.58L7.49-0.58Q5.83-1.58 4.43-4.03Q3.02-6.48 1.98-9.83Q0.94-13.18 0.43-16.92Q-0.07-20.66 0.04-24.23Q0.14-27.79 1.01-30.64Q1.87-33.48 3.64-35.06Q5.40-36.65 8.14-36.43Q10.87-36.22 14.69-33.70ZM7.13-3.31L7.13-3.31Q7.92-2.95 8.78-5.36Q9.65-7.78 10.55-11.81Q11.45-15.84 12.24-20.27Q13.03-24.70 13.61-28.37L13.61-28.37Q13.97-30.53 14.26-32.11L14.26-32.11Q10.37-34.92 7.78-34.88Q5.18-34.85 3.78-32.80Q2.38-30.74 1.91-27.43Q1.44-24.12 1.69-20.27Q1.94-16.42 2.77-12.85Q3.60-9.29 4.72-6.70Q5.83-4.10 7.13-3.31Z">
                            </path>
                        </svg></g>
                </g>
                <mask id="70954441-7d84-4073-9c38-30c3385ad6ab">
                    <g fill="white"><svg xmlns="http://www.w3.org/2000/svg" xlink="http://www.w3.org/1999/xlink"
                            viewBox="0.00406 -0.00027 45.33224 45.72027" style="overflow: visible;" width="60"
                            height="60.51376183800466" x="0" y="0" filtersec="colorsf648519436">
                            <g transform="scale(1, 1) skewX(0)">
                                <defs>
                                    <linearGradient id="aedf14778-505f-4729-8d26-6cf422bbd99e" x1="39.29" y1="13.69"
                                        x2="23.57" y2="10.5" gradientTransform="matrix(1 0 0 -1 0 48)"
                                        gradientUnits="userSpaceOnUse">
                                        <stop offset="0" stop-color="#7117ea" stop-opacity="0"></stop>
                                        <stop offset="1" stop-color="#ea6060"></stop>
                                    </linearGradient>
                                    <linearGradient id="bd2466f11-6ec8-4466-9597-51998cca0597" x1="25.89" y1="43.81"
                                        x2="20.61" y2="7.26" gradientTransform="matrix(1 0 0 -1 0 48)"
                                        gradientUnits="userSpaceOnUse">
                                        <stop offset="0" stop-color="#7117ea"></stop>
                                        <stop offset="1" stop-color="#ea6060"></stop>
                                    </linearGradient>
                                    <linearGradient id="ca9b77283-2ac2-49b4-84a3-68e30036f892" x1="39.77" y1="41.92"
                                        x2="-.84" y2="-6.24" gradientTransform="matrix(1 0 0 -1 0 48)"
                                        gradientUnits="userSpaceOnUse">
                                        <stop offset="0" stop-color="#7117ea" stop-opacity=".75"></stop>
                                        <stop offset="1" stop-color="#ea6060" stop-opacity="0"></stop>
                                    </linearGradient>
                                    <linearGradient id="d695b6bbf-36b5-4e31-ad76-c2d8603ccba5" x1="14855.71"
                                        y1="-47296.35" x2="14554.11" y2="-46333.85"
                                        href="#aedf14778-505f-4729-8d26-6cf422bbd99e"></linearGradient>
                                </defs>
                                <path
                                    d="M31.72 44.35a8.26 8.26 0 0 0 8-8.5 8.26 8.26 0 0 0-8-8.5 8.26 8.26 0 0 0-8 8.5 8.26 8.26 0 0 0 8 8.5z">
                                </path>
                                <path
                                    d="M7.25 38.52l26.8 3.87a4.93 4.93 0 0 0 5.58-4.18l3.87-26.8a4.93 4.93 0 0 0-4.17-5.58L12.53 2A4.92 4.92 0 0 0 7 6.14l-3.92 26.8a4.93 4.93 0 0 0 4.17 5.58z">
                                </path>
                                <g>
                                    <path
                                        d="M11.22 33.57c6.06 4.62 15.19 8.87 20.7 9.67 8 1.15 14.32 0 13.31-13.58C44 13.82 39.67-.07 32.34 0s-53.08 9.2-21.12 33.57z">
                                    </path>
                                    <path d="M30.2 45.72a14.55 14.55 0 1 0-14.54-14.55A14.54 14.54 0 0 0 30.2 45.72z">
                                    </path>
                                </g>
                            </g>
                        </svg></g>
                    <g fill="black"><svg xmlns="http://www.w3.org/2000/svg" xmlns:xlink="http://www.w3.org/1999/xlink"
                            viewBox="0 0 43.321333007812505 56.221714285714306" width="42" height="42.35963" x="9"
                            y="9.07706591900233" class="image-svg-letter">
                            <path transform="translate(-0.036000000000000004 53.917714285714304)"
                                d="M14.69-33.70L14.69-33.70Q15.41-37.73 15.84-40.97Q16.27-44.21 16.45-46.58Q16.63-48.96 16.70-50.44Q16.78-51.91 16.78-52.38Q16.78-52.85 16.78-52.34L16.78-52.34Q17.06-53.64 18.04-53.86Q19.01-54.07 20.23-53.53Q21.46-52.99 22.54-52.06Q23.62-51.12 24.12-50.18L24.12-50.18Q24.05-49.82 23.98-48.53L23.98-48.53Q23.90-46.30 23.51-41.54Q23.11-36.79 22.10-29.88L22.10-29.88Q24.98-27.65 26.86-26.28L26.86-26.28Q28.80-24.91 31.46-22.82L31.46-22.82Q32.47-28.37 33.77-35.93L33.77-35.93Q34.78-41.69 35.60-46.30Q36.43-50.90 36.79-52.34L36.79-52.34Q37.22-53.57 38.23-53.57Q39.24-53.57 40.36-52.85Q41.47-52.13 42.34-51.30Q43.20-50.47 43.27-50.04L43.27-50.04Q43.56-47.88 42.88-43.09Q42.19-38.30 41.11-31.90L41.11-31.90Q40.18-26.50 39.28-20.63Q38.38-14.76 37.80-9.00L37.80-9.00Q37.73-8.14 37.66-7.42Q37.58-6.70 37.51-6.05Q37.44-5.40 37.37-4.82Q37.30-4.25 37.22-3.74Q37.15-3.24 37.08-2.84Q37.01-2.45 36.94-2.09Q36.86-1.73 36.83-1.44Q36.79-1.15 36.72-0.90Q36.65-0.65 36.61-0.47Q36.58-0.29 36.50-0.14Q36.43 0 36.40 0.11Q36.36 0.22 36.32 0.29Q36.29 0.36 36.25 0.40Q36.22 0.43 36.22 0.43Q36.22 0.43 36.18 0.47Q36.14 0.50 36.11 0.47Q36.07 0.43 36.07 0.43Q36.07 0.43 36.07 0.43Q36.07 0.43 36.07 0.43L36.07 0.43Q36.00 0.65 35.17 1.12Q34.34 1.58 33.23 1.94Q32.11 2.30 31.14 2.30Q30.17 2.30 29.74 1.58L29.74 1.58Q28.80-0.22 28.73-2.84Q28.66-5.47 29.12-9.07Q29.59-12.67 30.31-17.35L30.31-17.35Q30.67-19.22 30.96-21.24L30.96-21.24Q29.38-22.39 28.30-23.18L28.30-23.18Q26.78-24.41 25.38-25.38Q23.98-26.35 21.67-27.94L21.67-27.94Q21.46-26.71 21.24-25.42L21.24-25.42Q20.66-21.46 19.98-17.46Q19.30-13.46 18.43-9.86Q17.57-6.26 16.52-3.67Q15.48-1.08 14.11 0L14.11 0Q13.54 0.14 12.38 0.22Q11.23 0.29 9.90 0.14Q8.57 0 7.49-0.58L7.49-0.58Q5.83-1.58 4.43-4.03Q3.02-6.48 1.98-9.83Q0.94-13.18 0.43-16.92Q-0.07-20.66 0.04-24.23Q0.14-27.79 1.01-30.64Q1.87-33.48 3.64-35.06Q5.40-36.65 8.14-36.43Q10.87-36.22 14.69-33.70ZM7.13-3.31L7.13-3.31Q7.92-2.95 8.78-5.36Q9.65-7.78 10.55-11.81Q11.45-15.84 12.24-20.27Q13.03-24.70 13.61-28.37L13.61-28.37Q13.97-30.53 14.26-32.11L14.26-32.11Q10.37-34.92 7.78-34.88Q5.18-34.85 3.78-32.80Q2.38-30.74 1.91-27.43Q1.44-24.12 1.69-20.27Q1.94-16.42 2.77-12.85Q3.60-9.29 4.72-6.70Q5.83-4.10 7.13-3.31Z">
                            </path>
                        </svg></g>
                </mask>
            </svg>
            <defs>
                <filter id="colors115617268">
                    <feColorMatrix type="matrix"
                        values="0 0 0 0 0.99609375  0 0 0 0 0.34375  0 0 0 0 0.33984375  0 0 0 1 0"
                        class="icon-fecolormatrix"></feColorMatrix>
                </filter>
                <filter id="colorsf648519436">
                    <feColorMatrix type="matrix"
                        values="0 0 0 0 0.99609375  0 0 0 0 0.99609375  0 0 0 0 0.99609375  0 0 0 1 0"
                        class="icon-fecolormatrix"></feColorMatrix>
                </filter>
                <filter id="colorsb8183440878">
                    <feColorMatrix type="matrix" values="0 0 0 0 0  0 0 0 0 0  0 0 0 0 0  0 0 0 1 0"
                        class="icon-fecolormatrix"></feColorMatrix>
                </filter>
            </defs>
        </g>
    </g>
    <defs v-gra="od"></defs>
</svg>